<mxfile host="app.diagrams.net" modified="2023-08-27T20:10:00.964Z" agent="Mozilla/5.0 (Macintosh; Intel Mac OS X 10_15_7) AppleWebKit/537.36 (KHTML, like Gecko) Chrome/116.0.0.0 Safari/537.36" etag="RW6Zv9VqQH2bQyNoARb_" version="21.6.9" type="device">
  <diagram name="Page-1" id="arCUK46hTVKuGoYuu2ZW">
    <mxGraphModel dx="1017" dy="524" grid="1" gridSize="10" guides="1" tooltips="1" connect="1" arrows="1" fold="1" page="1" pageScale="1" pageWidth="1169" pageHeight="1654" math="0" shadow="0">
      <root>
        <mxCell id="0" />
        <mxCell id="1" parent="0" />
        <mxCell id="zNiYjRv560OVddz7pmr2-28" value="reverse proxy (nginx)" style="rounded=0;whiteSpace=wrap;html=1;fillStyle=auto;rotation=-90;" parent="1" vertex="1">
          <mxGeometry x="299" y="410" width="150" height="50" as="geometry" />
        </mxCell>
        <mxCell id="zNiYjRv560OVddz7pmr2-29" value="Actor" style="shape=umlActor;verticalLabelPosition=bottom;verticalAlign=top;html=1;outlineConnect=0;" parent="1" vertex="1">
          <mxGeometry x="130" y="400" width="30" height="60" as="geometry" />
        </mxCell>
        <mxCell id="zNiYjRv560OVddz7pmr2-32" value="simple-app-ui" style="rounded=0;whiteSpace=wrap;html=1;" parent="1" vertex="1">
          <mxGeometry x="540" y="335" width="120" height="75" as="geometry" />
        </mxCell>
        <mxCell id="zNiYjRv560OVddz7pmr2-34" value="simple-app-server" style="rounded=0;whiteSpace=wrap;html=1;" parent="1" vertex="1">
          <mxGeometry x="540" y="450" width="120" height="75" as="geometry" />
        </mxCell>
        <mxCell id="zNiYjRv560OVddz7pmr2-36" value="simple-app-db" style="rounded=0;whiteSpace=wrap;html=1;" parent="1" vertex="1">
          <mxGeometry x="720" y="450" width="120" height="75" as="geometry" />
        </mxCell>
        <mxCell id="zNiYjRv560OVddz7pmr2-37" value="" style="endArrow=classic;html=1;rounded=0;" parent="1" edge="1">
          <mxGeometry relative="1" as="geometry">
            <mxPoint x="210" y="410" as="sourcePoint" />
            <mxPoint x="339" y="410" as="targetPoint" />
          </mxGeometry>
        </mxCell>
        <mxCell id="zNiYjRv560OVddz7pmr2-38" value="localhost" style="edgeLabel;resizable=0;html=1;align=center;verticalAlign=middle;" parent="zNiYjRv560OVddz7pmr2-37" connectable="0" vertex="1">
          <mxGeometry relative="1" as="geometry" />
        </mxCell>
        <mxCell id="zNiYjRv560OVddz7pmr2-39" value="" style="endArrow=classic;html=1;rounded=0;" parent="1" edge="1">
          <mxGeometry relative="1" as="geometry">
            <mxPoint x="210" y="450" as="sourcePoint" />
            <mxPoint x="339" y="449.57" as="targetPoint" />
          </mxGeometry>
        </mxCell>
        <mxCell id="zNiYjRv560OVddz7pmr2-40" value="localhost/api" style="edgeLabel;resizable=0;html=1;align=center;verticalAlign=middle;" parent="zNiYjRv560OVddz7pmr2-39" connectable="0" vertex="1">
          <mxGeometry relative="1" as="geometry" />
        </mxCell>
        <mxCell id="zNiYjRv560OVddz7pmr2-41" value="" style="endArrow=classic;html=1;rounded=0;entryX=-0.024;entryY=0.51;entryDx=0;entryDy=0;entryPerimeter=0;" parent="1" target="zNiYjRv560OVddz7pmr2-32" edge="1">
          <mxGeometry width="50" height="50" relative="1" as="geometry">
            <mxPoint x="400" y="410" as="sourcePoint" />
            <mxPoint x="530" y="328" as="targetPoint" />
            <Array as="points">
              <mxPoint x="459" y="410" />
              <mxPoint x="459" y="373" />
            </Array>
          </mxGeometry>
        </mxCell>
        <mxCell id="zNiYjRv560OVddz7pmr2-42" value="" style="endArrow=none;html=1;rounded=0;" parent="1" edge="1">
          <mxGeometry width="50" height="50" relative="1" as="geometry">
            <mxPoint x="210" y="450" as="sourcePoint" />
            <mxPoint x="210" y="410" as="targetPoint" />
          </mxGeometry>
        </mxCell>
        <mxCell id="zNiYjRv560OVddz7pmr2-43" value="" style="endArrow=none;html=1;rounded=0;" parent="1" edge="1">
          <mxGeometry width="50" height="50" relative="1" as="geometry">
            <mxPoint x="210" y="430" as="sourcePoint" />
            <mxPoint x="170" y="430" as="targetPoint" />
          </mxGeometry>
        </mxCell>
        <mxCell id="zNiYjRv560OVddz7pmr2-46" value="" style="endArrow=classic;html=1;rounded=0;entryX=-0.034;entryY=0.432;entryDx=0;entryDy=0;entryPerimeter=0;" parent="1" target="zNiYjRv560OVddz7pmr2-34" edge="1">
          <mxGeometry width="50" height="50" relative="1" as="geometry">
            <mxPoint x="403" y="450" as="sourcePoint" />
            <mxPoint x="540" y="368" as="targetPoint" />
            <Array as="points">
              <mxPoint x="462" y="450" />
              <mxPoint x="462" y="482" />
            </Array>
          </mxGeometry>
        </mxCell>
        <mxCell id="zNiYjRv560OVddz7pmr2-47" value="" style="endArrow=classic;html=1;rounded=0;entryX=0;entryY=0.5;entryDx=0;entryDy=0;exitX=1;exitY=0.5;exitDx=0;exitDy=0;" parent="1" source="zNiYjRv560OVddz7pmr2-34" target="zNiYjRv560OVddz7pmr2-36" edge="1">
          <mxGeometry width="50" height="50" relative="1" as="geometry">
            <mxPoint x="610" y="500" as="sourcePoint" />
            <mxPoint x="660" y="450" as="targetPoint" />
          </mxGeometry>
        </mxCell>
      </root>
    </mxGraphModel>
  </diagram>
</mxfile>
